<?xml version="1.0" encoding="UTF-8"?>
<svg width="613px" height="721px" viewBox="0 0 613 721" version="1.1" xmlns="http://www.w3.org/2000/svg" xmlns:xlink="http://www.w3.org/1999/xlink" style="background: #FFFFFF;">
    <title>build_time</title>
    <g id="Vercel-approach" stroke="none" stroke-width="1" fill="none" fill-rule="evenodd">
        <g id="doc_vercel" transform="translate(-8, -29)">
            <g id="Group-7" transform="translate(27.5, 46)">
                <rect id="Rectangle" fill="#0044CC" x="58.5" y="43" width="478" height="172"></rect>
                <rect id="Rectangle-Copy" fill="#000000" x="58.5" y="270" width="478" height="401"></rect>
                <g id="Group-6" transform="translate(0.5, 324)">
                    <path id="Line-4" d="M79,165.5 L93,172.5 L79,179.5 L79,173.5 L-0.5,173.5 L-0.5,171.5 L79,171.5 L79,165.5 Z" transform="translate(46.5, 172.5) scale(1, -1) translate(-46.5, -172.5)" fill="#979797" fill-rule="nonzero"></path>
                    <path id="Line-4-Copy" d="M248.948534,166.103893 L263,173 L249.052235,180.103509 L249.007,174.103 L195.507407,174.499973 L194.507435,174.50738 L194.49262,172.507435 L195.492593,172.500027 L248.993,172.104 L248.948534,166.103893 Z" transform="translate(229, 173) scale(1, -1) translate(-229, -173)" fill="#979797" fill-rule="nonzero"></path>
                    <g id="Group-Copy" transform="translate(94, 152)">
                        <rect id="Rectangle" fill="#FFFFFF" x="0" y="0" width="100" height="40"></rect>
                        <text id="Prebuild" font-family="SegoeUI-Bold, Segoe UI" font-size="10" font-weight="bold" letter-spacing="0.277777778" fill="#000000">
                            <tspan x="27.0793186" y="23">Prebuild</tspan>
                        </text>
                    </g>
                    <g id="Group-Copy" transform="translate(265, 153)">
                        <rect id="Rectangle" fill="#FFFFFF" x="0" y="0" width="100" height="40"></rect>
                        <text id="Continue-building" font-family="SegoeUI-Bold, Segoe UI" font-size="10" font-weight="bold" letter-spacing="0.277777778" fill="#000000">
                            <tspan x="27.5656467" y="17">Continue </tspan>
                            <tspan x="29.2843967" y="31">building</tspan>
                        </text>
                    </g>
                    <g id="Group-Copy-3" transform="translate(93, 0)">
                        <rect id="Rectangle" fill="#FFFFFF" x="0" y="77" width="100" height="40"></rect>
                        <text id="middleware-found" font-family="SegoeUI-Italic, Segoe UI" font-size="10" font-style="italic" font-weight="normal" letter-spacing="0.277777778" fill="#000000">
                            <tspan x="8.6859809" y="101">middleware found</tspan>
                        </text>
                        <rect id="Rectangle" fill="#FFFFFF" x="0" y="0" width="100" height="40"></rect>
                        <text id="config-file-found" font-family="SegoeUI-Italic, Segoe UI" font-size="10" font-style="italic" font-weight="normal" letter-spacing="0.277777778" fill="#000000">
                            <tspan x="12.8219944" y="24">config file found</tspan>
                        </text>
                    </g>
                    <path id="Line-3" d="M143.507462,118.000056 L147.872647,127.06621 L143.872,127.006 L143.499944,152.007462 L143.492482,152.507406 L142.492594,152.492482 L142.500056,151.992538 L142.872,126.991 L138.87365,126.931897 L143.507462,118.000056 Z" fill="#FFFFFF" fill-rule="nonzero"></path>
                    <rect id="Rectangle" fill="#FFFFFF" x="94" y="228" width="100" height="88"></rect>
                    <text id="build-will-fail-if-s" font-family="SegoeUI, Segoe UI" font-size="10" font-weight="normal" letter-spacing="0.277777778" fill="#FF375F">
                        <tspan x="109.703125" y="249">build will fail if </tspan>
                        <tspan x="111.181261" y="263">somenthing is </tspan>
                        <tspan x="105.947428" y="277">wrong with your </tspan>
                        <tspan x="108.022624" y="291">API Key or your </tspan>
                        <tspan x="112.629015" y="305">configuration</tspan>
                    </text>
                    <path id="Line-3" d="M144.757462,192.250056 L149.122647,201.31621 L145.122,201.256 L144.749944,226.257462 L144.742482,226.757406 L143.742594,226.742482 L143.750056,226.242538 L144.122,201.241 L140.12365,201.181897 L144.757462,192.250056 Z" transform="translate(144.75, 209.75) scale(1, -1) translate(-144.75, -209.75)" fill="#FF375F" fill-rule="nonzero"></path>
                    <path id="Line-3" d="M143.007462,43.0000557 L147.372647,52.0662101 L143.372,52.006 L142.999944,77.0074619 L142.992482,77.5074062 L141.992594,77.4924825 L142.000056,76.9925381 L142.372,51.991 L138.37365,51.9318967 L143.007462,43.0000557 Z" fill="#FFFFFF" fill-rule="nonzero"></path>
                </g>
                <text id="Hookdeck" font-family="SegoeUI-Bold, Segoe UI" font-size="18" font-weight="bold" letter-spacing="0.5" fill="#FFFFFF">
                    <tspan x="74.3642578" y="70">Hookdeck</tspan>
                </text>
                <text id="Vercel" font-family="NotoSans-Medium, Noto Sans" font-size="18" font-weight="400" letter-spacing="0.5" fill="#FFFFFF">
                    <tspan x="68.346" y="296">Vercel</tspan>
                </text>
                <g id="Group" transform="translate(93.5, 94)">
                    <rect id="Rectangle" fill="#FFFFFF" x="0" y="0" width="100" height="40"></rect>
                    <text id="Hookdeck-API" font-family="SegoeUI-Bold, Segoe UI" font-size="10" font-weight="bold" letter-spacing="0.277777778" fill="#000000">
                        <tspan x="15.0960286" y="24">Hookdeck API</tspan>
                    </text>
                </g>
                <text id="creates-resources-if" font-family="SegoeUI, Segoe UI" font-size="9" font-weight="normal" letter-spacing="0.25" fill="#000000">
                    <tspan x="176.5" y="241">creates resources if necesary</tspan>
                    <tspan x="176.5" y="253">and verify API Key </tspan>
                </text>
                <path id="Line" d="M357.5,113.99958 L357.5,452.009766 L182.687,452.009 L182.687,467.5 L186.6875,467.5 L182.1875,476.5 L177.6875,467.5 L181.687,467.5 L181.6875,451.009766 L356.5,451.009 L356.5,114.999 L193.5,114.99958 L193.5,113.99958 L357.5,113.99958 Z" fill="#FFFFFF" fill-rule="nonzero"></path>
                <path id="Line-3" d="M144,134 L148.5,143 L144.5,143 L144.5,325 L143.5,325 L143.5,143 L139.5,143 L144,134 Z" fill="#FFFFFF" fill-rule="nonzero"></path>
                <line x1="144" y1="270.5" x2="144" y2="215.5" id="Line-3" stroke="#000000" stroke-linecap="square"></line>
                <line x1="357" y1="270.5" x2="357" y2="215.5" id="Line-3" stroke="#000000" stroke-linecap="square"></line>
                <g id="Group-4-Copy" transform="translate(154.5, 234)">
                    <circle id="Oval" fill="#000000" cx="8.5" cy="8.5" r="8.5"></circle>
                    <text id="3" font-family="NotoSans-Black, Noto Sans" font-size="9" font-weight="800" letter-spacing="0.25" fill="#FFFFFF">
                        <tspan x="6.238" y="12">3</tspan>
                    </text>
                </g>
                <text id="deployment" font-family="SegoeUI, Segoe UI" font-size="9" font-weight="normal" letter-spacing="0.25" fill="#000000">
                    <tspan x="1.39648438" y="537">deployment</tspan>
                </text>
                <g id="Group-4-Copy" transform="translate(16.5, 506)">
                    <circle id="Oval" fill="#000000" cx="8.5" cy="8.5" r="8.5"></circle>
                    <text id="1" font-family="SegoeUI-Bold, Segoe UI" font-size="9" font-weight="bold" letter-spacing="0.25" fill="#FFFFFF">
                        <tspan x="6.28662109" y="12">1</tspan>
                    </text>
                </g>
                <text id="check-use-and-config" font-family="SegoeUI, Segoe UI" font-size="9" font-weight="normal" letter-spacing="0.25" fill="#FFFFFF">
                    <tspan x="246.5" y="379">check use and</tspan>
                    <tspan x="246.5" y="391">configuration  </tspan>
                </text>
                <g id="Group-4-Copy" transform="translate(222.5, 373)">
                    <circle id="Oval" fill="#FFFFFF" cx="8.5" cy="8.5" r="8.5"></circle>
                    <text id="2" font-family="SegoeUI-Bold, Segoe UI" font-size="9" font-weight="bold" letter-spacing="0.25" fill="#000000">
                        <tspan x="6.28662109" y="12">2</tspan>
                    </text>
                </g>
                <text id="Returns-operation-st" font-family="SegoeUI, Segoe UI" font-size="9" font-weight="normal" letter-spacing="0.25" fill="#FFFFFF">
                    <tspan x="399.5" y="151">Returns operation status</tspan>
                    <tspan x="399.5" y="163">and connections info</tspan>
                </text>
                <g id="Group-4-Copy" transform="translate(372.5, 145)">
                    <circle id="Oval" fill="#FFFFFF" cx="8.5" cy="8.5" r="8.5"></circle>
                    <text id="4" font-family="SegoeUI-Bold, Segoe UI" font-size="9" font-weight="bold" letter-spacing="0.25" fill="#000000">
                        <tspan x="6.28662109" y="12">4</tspan>
                    </text>
                </g>
                <text id="Deploy-time" font-family="SegoeUI-Bold, Segoe UI" font-size="18" font-weight="bold" letter-spacing="0.5" fill="#000000">
                    <tspan x="0.60546875" y="19">Deploy time</tspan>
                </text>
                <path d="M201.009766,324 L210,324 L210,441 L201.009766,441" id="Line-7" stroke="#FFFFFF" stroke-linecap="round" stroke-linejoin="round" stroke-dasharray="2"></path>
            </g>
        </g>
    </g>
</svg>