<?xml version="1.0" encoding="UTF-8"?>
<svg width="664px" height="528px" viewBox="0 0 664 528" version="1.1" xmlns="http://www.w3.org/2000/svg" xmlns:xlink="http://www.w3.org/1999/xlink" style="background: #FFFFFF;">
    <title>run_time</title>
    <g id="Vercel-approach" stroke="none" stroke-width="1" fill="none" fill-rule="evenodd">
        <g id="doc_vercel" transform="translate(-8, -782)">
            <g id="Group-5" transform="translate(20, 859)">
                <rect id="Rectangle" fill="#0044CC" x="72" y="0" width="548" height="172"></rect>
                <rect id="Rectangle-Copy" fill="#000000" x="72" y="227" width="368" height="172"></rect>
                <g id="Group-2" transform="translate(450, 119)">
                    <text id="Returns-to-your-Midd" font-family="SegoeUI, Segoe UI" font-size="9" font-weight="normal" letter-spacing="0.25" fill="#FFFFFF">
                        <tspan x="24" y="10">Returns to your</tspan>
                        <tspan x="24" y="22">Middleware</tspan>
                    </text>
                    <circle id="Oval" fill="#FFFFFF" cx="8.5" cy="12.5" r="8.5"></circle>
                    <text id="4" font-family="SegoeUI-Bold, Segoe UI" font-size="9" font-weight="bold" letter-spacing="0.25" fill="#000000">
                        <tspan x="6.28662109" y="16">4</tspan>
                    </text>
                </g>
                <path id="Line-4" d="M84.5,309 L93.5,313.5 L84.5,318 L84.5,314 L0,314 L0,313 L84.5,313 L84.5,309 Z" transform="translate(46.5, 313.5) scale(1, -1) translate(-46.5, -313.5)" fill="#979797" fill-rule="nonzero"></path>
                <text id="Hookdeck" font-family="SegoeUI-Bold, Segoe UI" font-size="18" font-weight="bold" letter-spacing="0.5" fill="#FFFFFF">
                    <tspan x="89.8642578" y="27">Hookdeck</tspan>
                </text>
                <text id="Vercel" font-family="NotoSans-Medium, Noto Sans" font-size="18" font-weight="400" letter-spacing="0.5" fill="#FFFFFF">
                    <tspan x="365.846" y="254">Vercel</tspan>
                </text>
                <g id="Group" transform="translate(93, 51)">
                    <rect id="Rectangle" fill="#FFFFFF" x="0" y="0" width="100" height="40"></rect>
                    <text id="Your-source(s)-endpo" font-family="SegoeUI-Bold, Segoe UI" font-size="10" font-weight="bold" letter-spacing="0.277777778" fill="#000000">
                        <tspan x="15.1331923" y="17">Your source</tspan>
                        <tspan x="72.9739041" y="17" font-family="Helvetica-Bold, Helvetica">(</tspan>
                        <tspan x="76.58176" y="17">s</tspan>
                        <tspan x="81.2589518" y="17" font-family="Helvetica-Bold, Helvetica">)</tspan>
                        <tspan x="84.8668077" y="17"></tspan>
                        <tspan x="21.5679253" y="31">endpoint</tspan>
                        <tspan x="66.539171" y="31" font-family="Helvetica-Bold, Helvetica">(</tspan>
                        <tspan x="70.1470269" y="31">s</tspan>
                        <tspan x="74.8242188" y="31" font-family="Helvetica-Bold, Helvetica">)</tspan>
                    </text>
                </g>
                <g id="Group" transform="translate(313, 51)">
                    <rect id="Rectangle" fill="#FFFFFF" x="0" y="0" width="100" height="40"></rect>
                    <text id="Processed-request" font-family="SegoeUI-Bold, Segoe UI" font-size="10" font-weight="bold" letter-spacing="0.277777778" fill="#000000">
                        <tspan x="25.3466797" y="17">Processed </tspan>
                        <tspan x="31.3812934" y="31">request</tspan>
                    </text>
                </g>
                <g id="Group-Copy" transform="translate(94, 293)">
                    <rect id="Rectangle" fill="#FFFFFF" x="0" y="0" width="100" height="40"></rect>
                    <text id="Edge-Middleware" font-family="SegoeUI-Bold, Segoe UI" font-size="10" font-weight="bold" letter-spacing="0.277777778" fill="#000000">
                        <tspan x="37.8868273" y="16">Edge </tspan>
                        <tspan x="20.7351345" y="30">Middleware</tspan>
                    </text>
                </g>
                <g id="Group-Copy-4" transform="translate(321, 293)">
                    <rect id="Rectangle" fill="#FFFFFF" x="0" y="0" width="100" height="40"></rect>
                    <text id="your-funcion-or-endp" font-family="SegoeUI-Bold, Segoe UI" font-size="10" font-weight="bold" letter-spacing="0.277777778" fill="#000000">
                        <tspan x="11.5299479" y="17">your funcion or</tspan>
                        <tspan x="27.5143772" y="31">endpoint</tspan>
                    </text>
                </g>
                <path id="Line-2" d="M305.037479,66.9299081 L313.999983,71.5041321 L304.963101,75.9296008 L304.996,71.929 L192.495868,70.9999829 L191.995885,70.9958508 L192.004149,69.995885 L192.504132,70.0000171 L305.004,70.929 L305.037479,66.9299081 Z" fill="#FFFFFF" fill-rule="nonzero"></path>
                <path id="Line-2" d="M440.5,71 L440.5,199.497135 L440.002874,199.499992 L179.499,200.996 L179.499,284.5 L183.5,284.5 L179,293.5 L174.5,284.5 L178.499,284.5 L178.5,200.002865 L178.997126,200.000008 L439.499,198.503 L439.499,72 L412.5,72 L412.5,71 L440.5,71 Z" fill="#FFFFFF" fill-rule="nonzero"></path>
                <polyline id="Line-2" stroke="#000000" stroke-linecap="square" points="440 172.5 440 200 179 200 179 227"></polyline>
                <text id="request" font-family="SegoeUI, Segoe UI" font-size="9" font-weight="normal" letter-spacing="0.25" fill="#000000">
                    <tspan x="19.2824707" y="353">request</tspan>
                </text>
                <text id="if-match" font-family="SegoeUI, Segoe UI" font-size="9" font-weight="normal" letter-spacing="0.25" fill="#000000">
                    <tspan x="92.0126953" y="213">if match</tspan>
                </text>
                <path id="Line-3" d="M143.5,91 L148,100 L144,100 L144,294 L143,294 L143,100 L139,100 L143.5,91 Z" fill="#FFFFFF" fill-rule="nonzero"></path>
                <line x1="143.5" y1="227.5" x2="143.5" y2="172.5" id="Line-3" stroke="#000000" stroke-linecap="square"></line>
                <g id="Group-4" transform="translate(26, 322)">
                    <circle id="Oval" fill="#000000" cx="8.5" cy="8.5" r="8.5"></circle>
                    <text id="1" font-family="NotoSans-Black, Noto Sans" font-size="9" font-weight="800" letter-spacing="0.25" fill="#FFFFFF">
                        <tspan x="6.238" y="12">1</tspan>
                    </text>
                </g>
                <g id="Group-4-Copy" transform="translate(99, 182)">
                    <circle id="Oval" fill="#000000" cx="8.5" cy="8.5" r="8.5"></circle>
                    <text id="2" font-family="NotoSans-Black, Noto Sans" font-size="9" font-weight="800" letter-spacing="0.25" fill="#FFFFFF">
                        <tspan x="6.238" y="12">2</tspan>
                    </text>
                </g>
                <path id="Line-5" d="M311,309 L320,313.5 L311,318 L311,314 L194,314 L194,313 L311,313 L311,309 Z" fill="#FFFFFF" fill-rule="nonzero"></path>
            </g>
            <g id="Group-2" transform="translate(229, 948)">
                <text id="Applies-your-configu" font-family="SegoeUI, Segoe UI" font-size="9" font-weight="normal" letter-spacing="0.25" fill="#FFFFFF">
                    <tspan x="24" y="10">Applies your</tspan>
                    <tspan x="24" y="22">configuration</tspan>
                </text>
                <circle id="Oval" fill="#FFFFFF" cx="8.5" cy="12.5" r="8.5"></circle>
                <text id="3" font-family="SegoeUI-Bold, Segoe UI" font-size="9" font-weight="bold" letter-spacing="0.25" fill="#000000">
                    <tspan x="6.28662109" y="16">3</tspan>
                </text>
            </g>
            <g id="Group-2" transform="translate(240, 1180)">
                <text id="Continue-to-final-en" font-family="SegoeUI, Segoe UI" font-size="9" font-weight="normal" letter-spacing="0.25" fill="#FFFFFF">
                    <tspan x="0.828125" y="30">Continue to final</tspan>
                    <tspan x="17.0065918" y="42">endpoint</tspan>
                </text>
                <g id="Group-8" transform="translate(28, 0)">
                    <circle id="Oval" fill="#FFFFFF" cx="8.5" cy="8.5" r="8.5"></circle>
                    <text id="5" font-family="SegoeUI-Bold, Segoe UI" font-size="9" font-weight="bold" letter-spacing="0.25" fill="#000000">
                        <tspan x="6.28662109" y="12">5</tspan>
                    </text>
                </g>
            </g>
            <text id="Run-time" font-family="SegoeUI-Bold, Segoe UI" font-size="18" font-weight="bold" letter-spacing="0.5" fill="#000000">
                <tspan x="41.5786133" y="829">Run time</tspan>
            </text>
        </g>
    </g>
</svg>